<?xml version="1.0" encoding="iso-8859-1"?>
<!-- Generator: Adobe Illustrator 19.0.0, SVG Export Plug-In . SVG Version: 6.00 Build 0)  -->
<svg version="1.1" id="Layer_1" xmlns="http://www.w3.org/2000/svg" xmlns:xlink="http://www.w3.org/1999/xlink" x="0px" y="0px"
	 viewBox="0 0 512 512" style="enable-background:new 0 0 512 512;" xml:space="preserve">
<path style="fill:#45C1F1;" d="M121,135c0,74.443,60.557,135,135,135s135-60.557,135-135S330.443,0,256,0S121,60.557,121,135z"/>
<path style="fill:#44A4EC;" d="M391,135C391,60.557,330.443,0,256,0v270C330.443,270,391,209.443,391,135z"/>
<path style="fill:#45C1F1;" d="M31,497c0,8.291,6.709,15,15,15h420c8.291,0,15-6.709,15-15c0-107.52-87.48-197-195-197h-60
	C118.48,300,31,389.48,31,497z"/>
<path style="fill:#44A4EC;" d="M286,300h-30v212h210c8.291,0,15-6.709,15-15C481,389.48,393.52,300,286,300z"/>
<g>
</g>
<g>
</g>
<g>
</g>
<g>
</g>
<g>
</g>
<g>
</g>
<g>
</g>
<g>
</g>
<g>
</g>
<g>
</g>
<g>
</g>
<g>
</g>
<g>
</g>
<g>
</g>
<g>
</g>
</svg>
