<svg height="512pt" viewBox="0 0 512 512" width="512pt" xmlns="http://www.w3.org/2000/svg" xmlns:xlink="http://www.w3.org/1999/xlink"><linearGradient id="a" gradientUnits="userSpaceOnUse" x1="0" x2="512" y1="256" y2="256"><stop offset="0" stop-color="#00f38d"/><stop offset="1" stop-color="#009eff"/></linearGradient><path d="m512 256c0 141.386719-114.613281 256-256 256s-256-114.613281-256-256 114.613281-256 256-256 256 114.613281 256 256zm0 0" fill="url(#a)"/><g fill="#fff"><path d="m207 153.28125h-41.988281c24.835937-22.140625 56.800781-34.445312 90.988281-34.445312 75.625 0 137.152344 61.523437 137.152344 137.152343h30c0-92.167969-74.984375-167.152343-167.152344-167.152343-26.453125 0-52.800781 6.339843-76.1875 18.335937-12.671875 6.5-24.523438 14.671875-35.179688 24.191406v-40.425781h-30v92.34375h92.367188zm0 0"/><path d="m305 358.695312h41.980469c-24.859375 22.140626-56.859375 34.472657-90.980469 34.472657-75.628906 0-137.152344-61.527344-137.152344-137.15625h-30c0 92.171875 74.984375 167.15625 167.152344 167.15625 26.523438 0 51.894531-6.035157 75.40625-17.9375 12.960938-6.566407 25.082031-14.886719 35.957031-24.609375v40.414062h30v-92.339844h-92.363281zm0 0"/><path d="m338.050781 304.511719v-100.917969h-30v38.683594h-10.789062c-2.394531 0-4.339844-1.949219-4.339844-4.34375v-34.339844h-30v34.339844c0 18.9375 15.402344 34.34375 34.339844 34.34375h10.789062v32.234375zm0 0"/><path d="m213.90625 203.59375h-32.691406v30h32.691406c1.921875 0 3.601562 1.324219 4.152344 3.09375-3.421875 6.679688-18.875 25.035156-34.628906 41l-4.324219 4.382812v22.441407h67.867187v-30h-19.90625c17.570313-20.515625 21.183594-29.285157 21.183594-36.578125 0-18.933594-15.40625-34.339844-34.34375-34.339844zm0 0"/></g></svg>