<svg id="Capa_1" enable-background="new 0 0 510 510" height="512" viewBox="0 0 510 510" width="512" xmlns="http://www.w3.org/2000/svg"><g id="XMLID_814_"><path id="XMLID_817_" d="m0 255c0 140.929 114.049 255 255 255l15-270-15-240c-140.931 0-255 114.05-255 255z" fill="#50e88d"/><path id="XMLID_820_" d="m255 0v510c140.93 0 255-114.051 255-255 0-140.929-114.049-255-255-255z" fill="#00c9ae"/><path id="XMLID_823_" d="m30 255c0 124.065 100.935 225 225 225l15-225-15-225c-124.065 0-225 100.935-225 225z" fill="#fdf3f3"/><path id="XMLID_826_" d="m255 30v450c124.065 0 225-100.935 225-225s-100.935-225-225-225z" fill="#ebe4f0"/><path id="XMLID_827_" d="m375 300v-120h-30v150h75v-30z" fill="#38336b"/><path id="XMLID_828_" d="m165 180c-24.812 0-45 20.188-45 45v105h30v-45h30v45h30v-105c0-24.812-20.186-45-45-45zm-15 75v-30c0-8.27 6.73-15 15-15 8.271 0 15 6.73 15 15v30z" fill="#524798"/><path id="XMLID_831_" d="m240 180v150h15l10-73.25-10-76.75z" fill="#524798"/><path id="XMLID_832_" d="m315 300h-45v-120h-15v150h60z" fill="#38336b"/></g></svg>